<mxfile host="65bd71144e">
    <diagram id="oTlmDm3OOI5hY_FjNa4U" name="Page-1">
        <mxGraphModel dx="1863" dy="2472" grid="1" gridSize="10" guides="1" tooltips="1" connect="1" arrows="1" fold="1" page="1" pageScale="1" pageWidth="827" pageHeight="1169" math="0" shadow="0">
            <root>
                <mxCell id="0"/>
                <mxCell id="1" parent="0"/>
                <mxCell id="T5ONzQQEl2_o84lyoLiL-1" value="" style="shape=ext;double=1;rounded=1;whiteSpace=wrap;html=1;fillColor=default;strokeColor=#36393d;" parent="1" vertex="1">
                    <mxGeometry x="150" y="-50" width="1120" height="1070" as="geometry"/>
                </mxCell>
                <mxCell id="T5ONzQQEl2_o84lyoLiL-34" style="edgeStyle=orthogonalEdgeStyle;rounded=0;orthogonalLoop=1;jettySize=auto;html=1;" parent="1" source="T5ONzQQEl2_o84lyoLiL-2" target="T5ONzQQEl2_o84lyoLiL-35" edge="1">
                    <mxGeometry relative="1" as="geometry">
                        <mxPoint x="1380" y="550" as="targetPoint"/>
                    </mxGeometry>
                </mxCell>
                <mxCell id="T5ONzQQEl2_o84lyoLiL-44" style="edgeStyle=orthogonalEdgeStyle;rounded=0;orthogonalLoop=1;jettySize=auto;html=1;entryX=1;entryY=0.5;entryDx=0;entryDy=0;" parent="1" source="T5ONzQQEl2_o84lyoLiL-2" target="T5ONzQQEl2_o84lyoLiL-43" edge="1">
                    <mxGeometry relative="1" as="geometry">
                        <Array as="points">
                            <mxPoint x="1365" y="590"/>
                            <mxPoint x="1360" y="590"/>
                            <mxPoint x="1360" y="730"/>
                        </Array>
                    </mxGeometry>
                </mxCell>
                <mxCell id="T5ONzQQEl2_o84lyoLiL-2" value="WEB-SERVER" style="shape=umlActor;verticalLabelPosition=bottom;verticalAlign=top;html=1;outlineConnect=0;fontStyle=1;fillColor=#e51400;fontColor=#ffffff;strokeColor=#B20000;" parent="1" vertex="1">
                    <mxGeometry x="1320" y="410" width="90" height="110" as="geometry"/>
                </mxCell>
                <mxCell id="T5ONzQQEl2_o84lyoLiL-45" style="edgeStyle=orthogonalEdgeStyle;rounded=0;orthogonalLoop=1;jettySize=auto;html=1;" parent="1" source="T5ONzQQEl2_o84lyoLiL-4" target="T5ONzQQEl2_o84lyoLiL-5" edge="1">
                    <mxGeometry relative="1" as="geometry">
                        <Array as="points">
                            <mxPoint x="75" y="370"/>
                        </Array>
                    </mxGeometry>
                </mxCell>
                <mxCell id="T5ONzQQEl2_o84lyoLiL-4" value="USER" style="shape=umlActor;verticalLabelPosition=bottom;verticalAlign=top;html=1;outlineConnect=0;fontStyle=1;" parent="1" vertex="1">
                    <mxGeometry x="30" y="460" width="90" height="110" as="geometry"/>
                </mxCell>
                <mxCell id="T5ONzQQEl2_o84lyoLiL-5" value="Landing on home page" style="ellipse;whiteSpace=wrap;html=1;" parent="1" vertex="1">
                    <mxGeometry x="220" y="330" width="210" height="80" as="geometry"/>
                </mxCell>
                <mxCell id="T5ONzQQEl2_o84lyoLiL-6" value="Chosing a difficulty level&lt;br&gt;&amp;amp;&lt;br&gt;Chosing number of quest" style="ellipse;whiteSpace=wrap;html=1;" parent="1" vertex="1">
                    <mxGeometry x="260" y="100" width="210" height="80" as="geometry"/>
                </mxCell>
                <mxCell id="T5ONzQQEl2_o84lyoLiL-48" style="edgeStyle=orthogonalEdgeStyle;rounded=0;orthogonalLoop=1;jettySize=auto;html=1;entryX=0.5;entryY=0;entryDx=0;entryDy=0;" parent="1" source="T5ONzQQEl2_o84lyoLiL-7" target="T5ONzQQEl2_o84lyoLiL-47" edge="1">
                    <mxGeometry relative="1" as="geometry"/>
                </mxCell>
                <mxCell id="T5ONzQQEl2_o84lyoLiL-7" value="Generate question" style="ellipse;whiteSpace=wrap;html=1;" parent="1" vertex="1">
                    <mxGeometry x="691" y="570" width="210" height="80" as="geometry"/>
                </mxCell>
                <mxCell id="T5ONzQQEl2_o84lyoLiL-8" value="Checking registration" style="ellipse;whiteSpace=wrap;html=1;" parent="1" vertex="1">
                    <mxGeometry x="790" y="250" width="210" height="80" as="geometry"/>
                </mxCell>
                <mxCell id="T5ONzQQEl2_o84lyoLiL-9" value="Start the game" style="ellipse;whiteSpace=wrap;html=1;" parent="1" vertex="1">
                    <mxGeometry x="414" y="480" width="210" height="80" as="geometry"/>
                </mxCell>
                <mxCell id="T5ONzQQEl2_o84lyoLiL-13" value="Include" style="endArrow=open;endSize=12;dashed=1;html=1;rounded=0;entryX=0.5;entryY=1;entryDx=0;entryDy=0;" parent="1" source="T5ONzQQEl2_o84lyoLiL-5" target="T5ONzQQEl2_o84lyoLiL-6" edge="1">
                    <mxGeometry width="160" relative="1" as="geometry">
                        <mxPoint x="510" y="380" as="sourcePoint"/>
                        <mxPoint x="670" y="380" as="targetPoint"/>
                    </mxGeometry>
                </mxCell>
                <mxCell id="T5ONzQQEl2_o84lyoLiL-14" value="Chosing a theme&lt;br&gt;(cooking, nature, etc.)" style="ellipse;whiteSpace=wrap;html=1;" parent="1" vertex="1">
                    <mxGeometry x="470" y="100" width="210" height="80" as="geometry"/>
                </mxCell>
                <mxCell id="T5ONzQQEl2_o84lyoLiL-16" value="Include" style="endArrow=open;endSize=12;dashed=1;html=1;rounded=0;exitX=0.726;exitY=0.072;exitDx=0;exitDy=0;exitPerimeter=0;" parent="1" source="T5ONzQQEl2_o84lyoLiL-5" edge="1">
                    <mxGeometry width="160" relative="1" as="geometry">
                        <mxPoint x="346.23778041368723" y="341.1726455174037" as="sourcePoint"/>
                        <mxPoint x="577.7145478166779" y="175.31973904179563" as="targetPoint"/>
                    </mxGeometry>
                </mxCell>
                <mxCell id="T5ONzQQEl2_o84lyoLiL-20" value="" style="html=1;verticalAlign=bottom;endArrow=block;rounded=0;" parent="1" source="T5ONzQQEl2_o84lyoLiL-5" target="T5ONzQQEl2_o84lyoLiL-9" edge="1">
                    <mxGeometry width="80" relative="1" as="geometry">
                        <mxPoint x="600" y="570" as="sourcePoint"/>
                        <mxPoint x="540" y="470" as="targetPoint"/>
                    </mxGeometry>
                </mxCell>
                <mxCell id="T5ONzQQEl2_o84lyoLiL-21" value="Include" style="endArrow=open;endSize=12;dashed=1;html=1;rounded=0;exitX=0.901;exitY=0.197;exitDx=0;exitDy=0;exitPerimeter=0;" parent="1" source="T5ONzQQEl2_o84lyoLiL-5" target="T5ONzQQEl2_o84lyoLiL-22" edge="1">
                    <mxGeometry width="160" relative="1" as="geometry">
                        <mxPoint x="364.23778041368723" y="361.1726455174037" as="sourcePoint"/>
                        <mxPoint x="654.8261908416175" y="221.3618329784697" as="targetPoint"/>
                    </mxGeometry>
                </mxCell>
                <mxCell id="T5ONzQQEl2_o84lyoLiL-22" value="Chosing a name" style="ellipse;whiteSpace=wrap;html=1;" parent="1" vertex="1">
                    <mxGeometry x="690" y="120" width="210" height="80" as="geometry"/>
                </mxCell>
                <mxCell id="T5ONzQQEl2_o84lyoLiL-23" value="name" style="endArrow=block;endFill=1;html=1;edgeStyle=orthogonalEdgeStyle;align=left;verticalAlign=top;rounded=0;" parent="1" source="T5ONzQQEl2_o84lyoLiL-2" target="T5ONzQQEl2_o84lyoLiL-8" edge="1">
                    <mxGeometry x="-1" relative="1" as="geometry">
                        <mxPoint x="580" y="410" as="sourcePoint"/>
                        <mxPoint x="740" y="410" as="targetPoint"/>
                        <Array as="points">
                            <mxPoint x="1365" y="290"/>
                        </Array>
                    </mxGeometry>
                </mxCell>
                <mxCell id="T5ONzQQEl2_o84lyoLiL-24" value="1" style="edgeLabel;resizable=0;html=1;align=left;verticalAlign=bottom;" parent="T5ONzQQEl2_o84lyoLiL-23" connectable="0" vertex="1">
                    <mxGeometry x="-1" relative="1" as="geometry"/>
                </mxCell>
                <mxCell id="T5ONzQQEl2_o84lyoLiL-25" value="Include" style="endArrow=open;endSize=12;dashed=1;html=1;rounded=0;" parent="1" source="T5ONzQQEl2_o84lyoLiL-22" target="T5ONzQQEl2_o84lyoLiL-8" edge="1">
                    <mxGeometry width="160" relative="1" as="geometry">
                        <mxPoint x="374.23778041368723" y="371.1726455174037" as="sourcePoint"/>
                        <mxPoint x="731.4781001629326" y="191.84991616480397" as="targetPoint"/>
                    </mxGeometry>
                </mxCell>
                <mxCell id="T5ONzQQEl2_o84lyoLiL-26" value="Include" style="endArrow=open;endSize=12;dashed=1;html=1;rounded=0;entryX=0.743;entryY=0.051;entryDx=0;entryDy=0;entryPerimeter=0;" parent="1" source="T5ONzQQEl2_o84lyoLiL-14" target="T5ONzQQEl2_o84lyoLiL-8" edge="1">
                    <mxGeometry width="160" relative="1" as="geometry">
                        <mxPoint x="384.23778041368723" y="381.1726455174037" as="sourcePoint"/>
                        <mxPoint x="741.4781001629326" y="201.84991616480397" as="targetPoint"/>
                        <Array as="points">
                            <mxPoint x="940" y="90"/>
                            <mxPoint x="940" y="120"/>
                        </Array>
                    </mxGeometry>
                </mxCell>
                <mxCell id="T5ONzQQEl2_o84lyoLiL-27" value="Include" style="endArrow=open;endSize=12;dashed=1;html=1;rounded=0;exitX=0.717;exitY=0.059;exitDx=0;exitDy=0;exitPerimeter=0;entryX=1;entryY=0;entryDx=0;entryDy=0;" parent="1" source="T5ONzQQEl2_o84lyoLiL-6" target="T5ONzQQEl2_o84lyoLiL-8" edge="1">
                    <mxGeometry width="160" relative="1" as="geometry">
                        <mxPoint x="394.23778041368723" y="391.1726455174037" as="sourcePoint"/>
                        <mxPoint x="751.4781001629326" y="211.84991616480397" as="targetPoint"/>
                        <Array as="points">
                            <mxPoint x="1010" y="60"/>
                        </Array>
                    </mxGeometry>
                </mxCell>
                <mxCell id="T5ONzQQEl2_o84lyoLiL-28" value="Include" style="endArrow=open;endSize=12;dashed=1;html=1;rounded=0;entryX=1;entryY=0;entryDx=0;entryDy=0;exitX=0;exitY=1;exitDx=0;exitDy=0;" parent="1" source="T5ONzQQEl2_o84lyoLiL-8" target="T5ONzQQEl2_o84lyoLiL-9" edge="1">
                    <mxGeometry width="160" relative="1" as="geometry">
                        <mxPoint x="404.23778041368723" y="401.1726455174037" as="sourcePoint"/>
                        <mxPoint x="761.4781001629326" y="221.84991616480397" as="targetPoint"/>
                    </mxGeometry>
                </mxCell>
                <mxCell id="T5ONzQQEl2_o84lyoLiL-50" value="Text" style="edgeLabel;html=1;align=center;verticalAlign=middle;resizable=0;points=[];" parent="T5ONzQQEl2_o84lyoLiL-28" vertex="1" connectable="0">
                    <mxGeometry x="0.5079" relative="1" as="geometry">
                        <mxPoint y="1" as="offset"/>
                    </mxGeometry>
                </mxCell>
                <mxCell id="T5ONzQQEl2_o84lyoLiL-29" value="" style="html=1;verticalAlign=bottom;endArrow=block;rounded=0;entryX=0.208;entryY=0.118;entryDx=0;entryDy=0;entryPerimeter=0;" parent="1" source="T5ONzQQEl2_o84lyoLiL-9" target="T5ONzQQEl2_o84lyoLiL-7" edge="1">
                    <mxGeometry width="80" relative="1" as="geometry">
                        <mxPoint x="381.6585752736278" y="415.83378581014586" as="sourcePoint"/>
                        <mxPoint x="482.65117706321644" y="494.10792370139325" as="targetPoint"/>
                        <Array as="points"/>
                    </mxGeometry>
                </mxCell>
                <mxCell id="T5ONzQQEl2_o84lyoLiL-35" value="UPDATE QUESTION" style="ellipse;whiteSpace=wrap;html=1;" parent="1" vertex="1">
                    <mxGeometry x="790" y="380" width="210" height="80" as="geometry"/>
                </mxCell>
                <mxCell id="T5ONzQQEl2_o84lyoLiL-36" value="Include" style="endArrow=open;endSize=12;dashed=1;html=1;rounded=0;" parent="1" source="T5ONzQQEl2_o84lyoLiL-35" target="T5ONzQQEl2_o84lyoLiL-7" edge="1">
                    <mxGeometry width="160" relative="1" as="geometry">
                        <mxPoint x="830.8579930315072" y="328.32391277448073" as="sourcePoint"/>
                        <mxPoint x="603.1420069684996" y="501.6760872255172" as="targetPoint"/>
                    </mxGeometry>
                </mxCell>
                <mxCell id="T5ONzQQEl2_o84lyoLiL-42" value="Condition : Has to answer current question" style="rounded=0;whiteSpace=wrap;html=1;" parent="1" vertex="1">
                    <mxGeometry x="840" y="470" width="230" height="35" as="geometry"/>
                </mxCell>
                <mxCell id="T5ONzQQEl2_o84lyoLiL-43" value="Display Score" style="ellipse;whiteSpace=wrap;html=1;" parent="1" vertex="1">
                    <mxGeometry x="960" y="690" width="210" height="80" as="geometry"/>
                </mxCell>
                <mxCell id="T5ONzQQEl2_o84lyoLiL-47" value="End game" style="ellipse;whiteSpace=wrap;html=1;" parent="1" vertex="1">
                    <mxGeometry x="580" y="730" width="210" height="80" as="geometry"/>
                </mxCell>
                <mxCell id="T5ONzQQEl2_o84lyoLiL-51" value="Include" style="endArrow=open;endSize=12;dashed=1;html=1;rounded=0;entryX=1;entryY=0.5;entryDx=0;entryDy=0;" parent="1" source="T5ONzQQEl2_o84lyoLiL-43" target="T5ONzQQEl2_o84lyoLiL-47" edge="1">
                    <mxGeometry width="160" relative="1" as="geometry">
                        <mxPoint x="830.8579930315072" y="328.32391277448073" as="sourcePoint"/>
                        <mxPoint x="603.1420069684996" y="501.6760872255172" as="targetPoint"/>
                    </mxGeometry>
                </mxCell>
            </root>
        </mxGraphModel>
    </diagram>
</mxfile>